<svg width="46" height="46" viewBox="0 0 46 46" fill="none" xmlns="http://www.w3.org/2000/svg">
<rect width="46" height="46" rx="10" fill="#00F0FF" fill-opacity="0.1"/>
<path d="M31.1667 26.5V13.6667C31.1659 13.4914 31.1256 13.3186 31.0488 13.1611C30.9721 13.0035 30.8608 12.8653 30.7233 12.7567C30.5878 12.647 30.4294 12.5691 30.2598 12.5288C30.0902 12.4884 29.9137 12.4865 29.7433 12.5233L19.2433 14.8567C18.9841 14.9151 18.7526 15.0603 18.5872 15.2682C18.4217 15.4761 18.3321 15.7343 18.3333 16V25.73C17.5369 25.354 16.64 25.2464 15.7772 25.4233C14.9144 25.6002 14.1323 26.0521 13.5481 26.7112C12.9639 27.3703 12.6091 28.2011 12.5371 29.0789C12.465 29.9567 12.6795 30.8341 13.1484 31.5797C13.6173 32.3252 14.3153 32.8986 15.1377 33.2139C15.9601 33.5291 16.8625 33.5692 17.7096 33.3281C18.5567 33.087 19.3028 32.5778 19.836 31.8768C20.3691 31.1757 20.6606 30.3207 20.6667 29.44C20.6787 29.238 20.6787 29.0354 20.6667 28.8333V16.9333L28.8333 15.125V23.3967C28.0365 23.0204 27.139 22.9129 26.2758 23.0902C25.4126 23.2675 24.6302 23.7201 24.0461 24.38C23.462 25.0399 23.1078 25.8715 23.0367 26.7498C22.9655 27.6282 23.1812 28.5059 23.6515 29.2512C24.1217 29.9965 24.821 30.5691 25.6444 30.8831C26.4678 31.1971 27.3709 31.2354 28.218 30.9924C29.065 30.7493 29.8104 30.238 30.3421 29.5353C30.8738 28.8325 31.1631 27.9762 31.1667 27.095C31.1778 26.8968 31.1778 26.6982 31.1667 26.5Z" fill="#00F0FF"/>
</svg>
