<svg width="46" height="46" viewBox="0 0 46 46" fill="none" xmlns="http://www.w3.org/2000/svg">
<rect width="46" height="46" rx="10" fill="#AAAAAA" fill-opacity="0.1"/>
<path d="M25.1349 31.1667C24.9606 31.1673 24.7884 31.1288 24.6309 31.0541C24.4734 30.9794 24.3347 30.8704 24.2249 30.735L18.5899 23.735C18.4183 23.5263 18.3245 23.2644 18.3245 22.9942C18.3245 22.7239 18.4183 22.4621 18.5899 22.2533L24.4232 15.2533C24.6212 15.0151 24.9058 14.8653 25.2143 14.8368C25.5228 14.8084 25.8299 14.9036 26.0682 15.1017C26.3065 15.2997 26.4563 15.5843 26.4847 15.8928C26.5132 16.2013 26.4179 16.5084 26.2199 16.7467L21.0049 23L26.0449 29.2533C26.1875 29.4246 26.2782 29.6331 26.306 29.8543C26.3339 30.0754 26.2978 30.2999 26.2021 30.5012C26.1063 30.7025 25.955 30.8721 25.7658 30.99C25.5767 31.108 25.3577 31.1693 25.1349 31.1667Z" fill="#231F20"/>
</svg>
