<svg width="24" height="25" viewBox="0 0 24 25" fill="none" xmlns="http://www.w3.org/2000/svg">
<path d="M20.05 11.5H3.95C3.42533 11.5 3 11.9253 3 12.45V12.55C3 13.0747 3.42533 13.5 3.95 13.5H20.05C20.5747 13.5 21 13.0747 21 12.55V12.45C21 11.9253 20.5747 11.5 20.05 11.5Z" fill="white"/>
<path d="M20.05 16.5H3.95C3.42533 16.5 3 16.9253 3 17.45V17.55C3 18.0747 3.42533 18.5 3.95 18.5H20.05C20.5747 18.5 21 18.0747 21 17.55V17.45C21 16.9253 20.5747 16.5 20.05 16.5Z" fill="white"/>
<path d="M20.05 6.5H3.95C3.42533 6.5 3 6.92533 3 7.45V7.55C3 8.07467 3.42533 8.5 3.95 8.5H20.05C20.5747 8.5 21 8.07467 21 7.55V7.45C21 6.92533 20.5747 6.5 20.05 6.5Z" fill="white"/>
</svg>
