<svg width="46" height="46" viewBox="0 0 46 46" fill="none" xmlns="http://www.w3.org/2000/svg">
<rect width="46" height="46" rx="10" fill="#0085FF" fill-opacity="0.1"/>
<path d="M30 12.5H16C15.0717 12.5 14.1815 12.8687 13.5251 13.5251C12.8687 14.1815 12.5 15.0717 12.5 16V30C12.5 30.9283 12.8687 31.8185 13.5251 32.4749C14.1815 33.1313 15.0717 33.5 16 33.5H30C30.9283 33.5 31.8185 33.1313 32.4749 32.4749C33.1313 31.8185 33.5 30.9283 33.5 30V16C33.5 15.0717 33.1313 14.1815 32.4749 13.5251C31.8185 12.8687 30.9283 12.5 30 12.5ZM18.3333 17.1667C18.6795 17.1667 19.0178 17.2693 19.3056 17.4616C19.5934 17.6539 19.8177 17.9272 19.9501 18.247C20.0826 18.5667 20.1172 18.9186 20.0497 19.2581C19.9822 19.5975 19.8155 19.9094 19.5708 20.1541C19.326 20.3988 19.0142 20.5655 18.6747 20.633C18.3353 20.7006 17.9834 20.6659 17.6636 20.5335C17.3439 20.401 17.0706 20.1767 16.8783 19.8889C16.686 19.6011 16.5833 19.2628 16.5833 18.9167C16.5833 18.4525 16.7677 18.0074 17.0959 17.6792C17.4241 17.351 17.8692 17.1667 18.3333 17.1667ZM31.1667 29.8017C31.1924 30.1373 31.0841 30.4694 30.8654 30.7253C30.6467 30.9811 30.3355 31.1399 30 31.1667H16L24.8317 23.21C24.98 23.0747 25.1734 22.9997 25.3742 22.9997C25.5749 22.9997 25.7684 23.0747 25.9167 23.21L31.1667 28.4367V29.8017Z" fill="#0085FF"/>
</svg>
