<svg width="46" height="46" viewBox="0 0 46 46" fill="none" xmlns="http://www.w3.org/2000/svg">
<rect width="46" height="46" rx="10" fill="#676767" fill-opacity="0.1"/>
<path d="M32.0298 17.5517L26.8498 11.7183C26.7408 11.5975 26.6076 11.5008 26.4589 11.4345C26.3102 11.3682 26.1493 11.3337 25.9865 11.3333H16.6532C16.2655 11.3287 15.8808 11.4005 15.5209 11.5446C15.161 11.6887 14.8331 11.9022 14.5557 12.1731C14.2784 12.4439 14.0571 12.7667 13.9045 13.1231C13.752 13.4795 13.6711 13.8624 13.6665 14.25V31.75C13.6711 32.1376 13.752 32.5206 13.9045 32.8769C14.0571 33.2333 14.2784 33.5561 14.5557 33.827C14.8331 34.0978 15.161 34.3114 15.5209 34.4554C15.8808 34.5995 16.2655 34.6713 16.6532 34.6667H29.3465C29.7341 34.6713 30.1189 34.5995 30.4788 34.4554C30.8386 34.3114 31.1666 34.0978 31.444 33.827C31.7213 33.5561 31.9426 33.2333 32.0951 32.8769C32.2477 32.5206 32.3286 32.1376 32.3332 31.75V18.3333C32.3324 18.0442 32.2243 17.7656 32.0298 17.5517V17.5517ZM25.3332 13.6667L29.6965 18.3333H26.1965C26.0743 18.326 25.9548 18.2943 25.845 18.2403C25.7352 18.1862 25.6373 18.1108 25.5569 18.0185C25.4765 17.9262 25.4154 17.8188 25.3769 17.7026C25.3385 17.5864 25.3237 17.4637 25.3332 17.3417V13.6667Z" fill="#676767"/>
</svg>
