<svg width="46" height="46" viewBox="0 0 46 46" fill="none" xmlns="http://www.w3.org/2000/svg">
<rect width="46" height="46" rx="10" fill="#FFB800" fill-opacity="0.1"/>
<path d="M30 12.5H16C15.0717 12.5 14.1815 12.8687 13.5251 13.5251C12.8687 14.1815 12.5 15.0717 12.5 16V30C12.5 30.9283 12.8687 31.8185 13.5251 32.4749C14.1815 33.1313 15.0717 33.5 16 33.5H30C30.9283 33.5 31.8185 33.1313 32.4749 32.4749C33.1313 31.8185 33.5 30.9283 33.5 30V16C33.5 15.0717 33.1313 14.1815 32.4749 13.5251C31.8185 12.8687 30.9283 12.5 30 12.5ZM23 16C23.2307 16 23.4563 16.0684 23.6482 16.1966C23.84 16.3248 23.9896 16.507 24.0779 16.7202C24.1662 16.9334 24.1893 17.168 24.1442 17.3943C24.0992 17.6206 23.9881 17.8285 23.825 17.9916C23.6618 18.1548 23.4539 18.2659 23.2276 18.3109C23.0013 18.3559 22.7667 18.3328 22.5535 18.2445C22.3404 18.1562 22.1581 18.0067 22.03 17.8148C21.9018 17.623 21.8333 17.3974 21.8333 17.1667C21.8333 16.8572 21.9562 16.5605 22.175 16.3417C22.3938 16.1229 22.6906 16 23 16ZM18.3333 16C18.5641 16 18.7896 16.0684 18.9815 16.1966C19.1734 16.3248 19.3229 16.507 19.4112 16.7202C19.4995 16.9334 19.5226 17.168 19.4776 17.3943C19.4326 17.6206 19.3215 17.8285 19.1583 17.9916C18.9951 18.1548 18.7872 18.2659 18.5609 18.3109C18.3346 18.3559 18.1 18.3328 17.8869 18.2445C17.6737 18.1562 17.4915 18.0067 17.3633 17.8148C17.2351 17.623 17.1667 17.3974 17.1667 17.1667C17.1667 16.8572 17.2896 16.5605 17.5084 16.3417C17.7272 16.1229 18.0239 16 18.3333 16ZM31.1667 30C31.1667 30.3094 31.0438 30.6062 30.825 30.825C30.6062 31.0438 30.3094 31.1667 30 31.1667H16C15.6906 31.1667 15.3938 31.0438 15.175 30.825C14.9562 30.6062 14.8333 30.3094 14.8333 30V21.8333H31.1667V30Z" fill="#FFB800"/>
</svg>
