<svg width="46" height="46" viewBox="0 0 46 46" fill="none" xmlns="http://www.w3.org/2000/svg">
<rect width="46" height="46" rx="10" fill="#00FF47" fill-opacity="0.1"/>
<path d="M33.5002 17.3417C33.1457 17.1821 32.7521 17.1301 32.3684 17.1924C31.9847 17.2546 31.6277 17.4282 31.3418 17.6917L28.8335 20.025V18.3333C28.8335 17.4051 28.4647 16.5148 27.8084 15.8585C27.152 15.2021 26.2618 14.8333 25.3335 14.8333H14.8335C13.9052 14.8333 13.015 15.2021 12.3586 15.8585C11.7022 16.5148 11.3335 17.4051 11.3335 18.3333V27.6667C11.3335 28.5949 11.7022 29.4852 12.3586 30.1415C13.015 30.7979 13.9052 31.1667 14.8335 31.1667H25.3335C26.2618 31.1667 27.152 30.7979 27.8084 30.1415C28.4647 29.4852 28.8335 28.5949 28.8335 27.6667V25.975L31.3535 28.3083C31.7245 28.6441 32.2064 28.8311 32.7068 28.8333C32.9845 28.8327 33.2589 28.773 33.5118 28.6583C33.8559 28.5191 34.1507 28.2805 34.3585 27.9729C34.5663 27.6654 34.6777 27.3028 34.6785 26.9317V19.0683C34.6768 18.6958 34.5637 18.3323 34.3537 18.0246C34.1437 17.7169 33.8464 17.479 33.5002 17.3417Z" fill="#00FF47"/>
</svg>
