<svg width="46" height="46" viewBox="0 0 46 46" fill="none" xmlns="http://www.w3.org/2000/svg">
<rect width="46" height="46" rx="10" fill="#FF0000" fill-opacity="0.1"/>
<path d="M30 12.5H16C15.2953 12.5042 14.6083 12.721 14.0289 13.122C13.4494 13.523 13.0046 14.0897 12.7524 14.7477C12.5003 15.4058 12.4527 16.1246 12.6158 16.8101C12.7789 17.4957 13.1452 18.116 13.6667 18.59V30C13.6667 30.9283 14.0354 31.8185 14.6918 32.4749C15.3482 33.1313 16.2384 33.5 17.1667 33.5H28.8334C29.7616 33.5 30.6519 33.1313 31.3082 32.4749C31.9646 31.8185 32.3334 30.9283 32.3334 30V18.59C32.8548 18.116 33.2211 17.4957 33.3842 16.8101C33.5474 16.1246 33.4998 15.4058 33.2476 14.7477C32.9955 14.0897 32.5506 13.523 31.9712 13.122C31.3917 12.721 30.7047 12.5042 30 12.5ZM26.5 24.3183C26.5 24.5875 26.3931 24.8457 26.2027 25.036C26.0124 25.2264 25.7542 25.3333 25.485 25.3333H20.515C20.2458 25.3333 19.9877 25.2264 19.7973 25.036C19.607 24.8457 19.5 24.5875 19.5 24.3183V24.015C19.5 23.7458 19.607 23.4876 19.7973 23.2973C19.9877 23.1069 20.2458 23 20.515 23H25.485C25.7542 23 26.0124 23.1069 26.2027 23.2973C26.3931 23.4876 26.5 23.7458 26.5 24.015V24.3183ZM30 17.1667H16C15.6906 17.1667 15.3939 17.0437 15.1751 16.825C14.9563 16.6062 14.8334 16.3094 14.8334 16C14.8334 15.6906 14.9563 15.3938 15.1751 15.175C15.3939 14.9562 15.6906 14.8333 16 14.8333H30C30.3094 14.8333 30.6062 14.9562 30.825 15.175C31.0438 15.3938 31.1667 15.6906 31.1667 16C31.1667 16.3094 31.0438 16.6062 30.825 16.825C30.6062 17.0437 30.3094 17.1667 30 17.1667Z" fill="#FF0000"/>
</svg>
