<svg width="46" height="46" viewBox="0 0 46 46" fill="none" xmlns="http://www.w3.org/2000/svg">
<rect width="46" height="46" rx="10" fill="#FA00FF" fill-opacity="0.1"/>
<path d="M32.0298 17.5517L26.8498 11.7183C26.7408 11.5975 26.6076 11.5008 26.4589 11.4345C26.3102 11.3682 26.1493 11.3337 25.9865 11.3333H16.6532C16.2655 11.3287 15.8808 11.4005 15.5209 11.5446C15.161 11.6886 14.8331 11.9022 14.5557 12.173C14.2784 12.4439 14.0571 12.7667 13.9045 13.1231C13.752 13.4794 13.6711 13.8624 13.6665 14.25V31.75C13.6711 32.1376 13.752 32.5206 13.9045 32.8769C14.0571 33.2333 14.2784 33.5561 14.5557 33.827C14.8331 34.0978 15.161 34.3114 15.5209 34.4554C15.8808 34.5995 16.2655 34.6713 16.6532 34.6667H29.3465C29.7341 34.6713 30.1189 34.5995 30.4788 34.4554C30.8386 34.3114 31.1666 34.0978 31.444 33.827C31.7213 33.5561 31.9426 33.2333 32.0951 32.8769C32.2477 32.5206 32.3286 32.1376 32.3332 31.75V18.3333C32.3324 18.0442 32.2243 17.7656 32.0298 17.5517ZM19.4998 23H22.9998C23.3093 23 23.606 23.1229 23.8248 23.3417C24.0436 23.5605 24.1665 23.8572 24.1665 24.1667C24.1665 24.4761 24.0436 24.7728 23.8248 24.9916C23.606 25.2104 23.3093 25.3333 22.9998 25.3333H19.4998C19.1904 25.3333 18.8937 25.2104 18.6749 24.9916C18.4561 24.7728 18.3332 24.4761 18.3332 24.1667C18.3332 23.8572 18.4561 23.5605 18.6749 23.3417C18.8937 23.1229 19.1904 23 19.4998 23ZM26.4998 30H19.4998C19.1904 30 18.8937 29.8771 18.6749 29.6583C18.4561 29.4395 18.3332 29.1428 18.3332 28.8333C18.3332 28.5239 18.4561 28.2272 18.6749 28.0084C18.8937 27.7896 19.1904 27.6667 19.4998 27.6667H26.4998C26.8093 27.6667 27.106 27.7896 27.3248 28.0084C27.5436 28.2272 27.6665 28.5239 27.6665 28.8333C27.6665 29.1428 27.5436 29.4395 27.3248 29.6583C27.106 29.8771 26.8093 30 26.4998 30ZM26.1615 18.3333C25.921 18.3096 25.6994 18.1924 25.5445 18.007C25.3895 17.8215 25.3137 17.5826 25.3332 17.3417V13.6667L29.6965 18.3333H26.1615Z" fill="#FA00FF"/>
</svg>
