<svg width="46" height="46" viewBox="0 0 46 46" fill="none" xmlns="http://www.w3.org/2000/svg">
<rect width="46" height="46" rx="10" fill="#AAAAAA" fill-opacity="0.1"/>
<path d="M31.7499 32.9167H14.2499C13.4876 32.926 12.7527 32.6329 12.206 32.1016C11.6594 31.5702 11.3455 30.8439 11.3333 30.0817V15.9183C11.3455 15.1561 11.6594 14.4298 12.206 13.8984C12.7527 13.3671 13.4876 13.074 14.2499 13.0833H19.6166C19.7889 13.0845 19.9588 13.1238 20.1142 13.1984C20.2695 13.273 20.4064 13.3812 20.5149 13.515L23.5483 17.225H31.7149C32.0953 17.2157 32.4738 17.2818 32.8284 17.4196C33.1831 17.5573 33.507 17.7639 33.7814 18.0275C34.0559 18.2911 34.2754 18.6064 34.4273 18.9552C34.5792 19.3041 34.6605 19.6796 34.6666 20.06V30.0817C34.6543 30.8439 34.3405 31.5702 33.7938 32.1016C33.2471 32.6329 32.5122 32.926 31.7499 32.9167Z" fill="#231F20"/>
</svg>
