<svg width="512" height="512" viewBox="0 0 512 512" fill="none" xmlns="http://www.w3.org/2000/svg">
<rect width="512" height="512" rx="140" fill="url(#paint0_linear_316_610)"/>
<path fill-rule="evenodd" clip-rule="evenodd" d="M112 113C96.536 113 84 125.536 84 141V174.735V325.796V370C84 385.464 96.536 398 112 398H400C415.464 398 428 385.464 428 370V174.735C428 159.271 415.464 146.735 400 146.735H242V141C242 125.536 229.464 113 214 113H112Z" fill="white"/>
<path d="M123.094 201.031C123.01 200.823 122.969 200.573 122.969 200.281C122.969 199.969 123.135 199.625 123.469 199.25L134.344 184.844L124.188 170.5C123.521 169.625 123.479 168.854 124.062 168.188C124.312 167.896 124.667 167.75 125.125 167.75H131.906C133.927 167.75 135.552 168.667 136.781 170.5L141.969 178.375L147.156 170.5C148.385 168.667 150.01 167.75 152.031 167.75H158.812C159.271 167.75 159.625 167.896 159.875 168.188C160.458 168.854 160.417 169.625 159.75 170.5L149.594 184.844L160.469 199.25C160.802 199.625 160.969 199.979 160.969 200.312C160.969 200.625 160.927 200.865 160.844 201.031C160.677 201.677 160.229 202 159.5 202H152.844C150.927 202 149.302 201.083 147.969 199.25L141.969 191.125L135.938 199.25C134.625 201.083 133.01 202 131.094 202H124.438C123.708 202 123.26 201.677 123.094 201.031ZM168.094 198.125C164.844 195.125 163.219 190.708 163.219 184.875C163.219 179.021 164.844 174.604 168.094 171.625C171.344 168.625 176.01 167.125 182.094 167.125C188.198 167.125 192.875 168.625 196.125 171.625C199.375 174.604 201 179.021 201 184.875C201 190.708 199.375 195.125 196.125 198.125C192.875 201.125 188.198 202.625 182.094 202.625C176.01 202.625 171.344 201.125 168.094 198.125ZM176 176.75C174.708 178.438 174.062 181.135 174.062 184.844C174.062 188.552 174.708 191.26 176 192.969C177.292 194.677 179.323 195.531 182.094 195.531C184.885 195.531 186.927 194.677 188.219 192.969C189.531 191.26 190.188 188.552 190.188 184.844C190.188 181.135 189.531 178.438 188.219 176.75C186.927 175.062 184.885 174.219 182.094 174.219C179.323 174.219 177.292 175.062 176 176.75Z" fill="url(#paint1_linear_316_610)"/>
<path d="M122 208.406H202.906V211.594H122V208.406Z" fill="url(#paint2_linear_316_610)"/>
<defs>
<linearGradient id="paint0_linear_316_610" x1="0" y1="0" x2="192.74" y2="612.469" gradientUnits="userSpaceOnUse">
<stop stop-color="#9769FA"/>
<stop offset="1" stop-color="#8C3494"/>
</linearGradient>
<linearGradient id="paint1_linear_316_610" x1="122" y1="138" x2="152.492" y2="234.895" gradientUnits="userSpaceOnUse">
<stop stop-color="#9769FA"/>
<stop offset="1" stop-color="#8C3494"/>
</linearGradient>
<linearGradient id="paint2_linear_316_610" x1="122" y1="138" x2="152.492" y2="234.895" gradientUnits="userSpaceOnUse">
<stop stop-color="#9769FA"/>
<stop offset="1" stop-color="#8C3494"/>
</linearGradient>
</defs>
</svg>
