<svg width="46" height="46" viewBox="0 0 46 46" fill="none" xmlns="http://www.w3.org/2000/svg">
<rect width="46" height="46" rx="10" fill="#AAAAAA" fill-opacity="0.1"/>
<path d="M33.255 22.23L29.3584 14.4367C29.0673 13.8537 28.6194 13.3636 28.0649 13.0215C27.5105 12.6793 26.8715 12.4987 26.22 12.5H19.78C19.1285 12.4987 18.4895 12.6793 17.9351 13.0215C17.3806 13.3636 16.9327 13.8537 16.6417 14.4367L12.745 22.23C12.5825 22.5561 12.4986 22.9157 12.5 23.28V30C12.5 30.9283 12.8688 31.8185 13.5251 32.4749C14.1815 33.1312 15.0718 33.5 16 33.5H30C30.9283 33.5 31.8185 33.1312 32.4749 32.4749C33.1313 31.8185 33.5 30.9283 33.5 30V23.28C33.5014 22.9157 33.4175 22.5561 33.255 22.23ZM18.3334 28.8333C18.1026 28.8333 17.877 28.7649 17.6852 28.6367C17.4933 28.5085 17.3438 28.3263 17.2555 28.1131C17.1672 27.8999 17.1441 27.6654 17.1891 27.4391C17.2341 27.2127 17.3452 27.0049 17.5084 26.8417C17.6716 26.6785 17.8794 26.5674 18.1057 26.5224C18.3321 26.4774 18.5666 26.5005 18.7798 26.5888C18.993 26.6771 19.1752 26.8266 19.3034 27.0185C19.4316 27.2104 19.5 27.4359 19.5 27.6667C19.5 27.9761 19.3771 28.2728 19.1583 28.4916C18.9395 28.7104 18.6428 28.8333 18.3334 28.8333ZM27.6667 28.8333H23C22.6906 28.8333 22.3939 28.7104 22.1751 28.4916C21.9563 28.2728 21.8334 27.9761 21.8334 27.6667C21.8334 27.3572 21.9563 27.0605 22.1751 26.8417C22.3939 26.6229 22.6906 26.5 23 26.5H27.6667C27.9761 26.5 28.2729 26.6229 28.4916 26.8417C28.7104 27.0605 28.8334 27.3572 28.8334 27.6667C28.8334 27.9761 28.7104 28.2728 28.4916 28.4916C28.2729 28.7104 27.9761 28.8333 27.6667 28.8333ZM15.5567 21.8333L18.73 15.475C18.8279 15.2808 18.978 15.1178 19.1635 15.0045C19.3491 14.8911 19.5626 14.8318 19.78 14.8333H26.22C26.4374 14.8318 26.651 14.8911 26.8365 15.0045C27.022 15.1178 27.1722 15.2808 27.27 15.475L30.4433 21.8333H15.5567Z" fill="#231F20"/>
</svg>
